<?xml version="1.0" encoding="UTF-8"?>
<svg id="Layer_1" data-name="Layer 1" xmlns="http://www.w3.org/2000/svg" viewBox="0 0 1254 680.04">
  <defs>
    <style>
      .cls-1 {
        fill: #f57f17;
      }
    </style>
  </defs>
  <g>
    <path class="cls-1" d="M1180.52,327.95c9.6,8.52,11.01,21.39,3.07,26.72-3.89,2.61-8.1,2.82-12.21,1.16-14.2-5.73-15.48-28.01-15.89-43.75,9.41,4.68,17.71,9.36,25.02,15.86Z"/>
    <path class="cls-1" d="M1119.39,335.96c-.25,4.57-2.32,8.59-5.54,10.51-3.88,2.31-8.35,2.22-12.22.17-12.97-6.9-12.47-27.29-12.18-42.27,13.47,7.46,29.45,17.2,29.94,31.59Z"/>
    <path class="cls-1" d="M1143.32,267.71c-.51,5.7-5,9.1-10.56,8.94-15.16-.42-20.11-20.71-22.94-35.67,14.74,4.25,34.8,12.13,33.5,26.73Z"/>
    <path class="cls-1" d="M1068.81,254.03c10.41,7.45,11.22,19.17,4.92,23.22-3.04,1.96-6.42,2.25-9.84,1.16-5.25-1.93-9.82-6.12-11.13-11.6l-5.64-23.58c8.29,2.91,15.22,6.16,21.69,10.79Z"/>
    <path class="cls-1" d="M1071.02,185.17c8.4,4.41,12.58,13.3,7.42,19.24-2.03,2.33-4.94,3.01-8.11,3.02-13.29-1.35-18.37-16.89-23.11-29.68,8.39,1.54,16.35,3.5,23.8,7.41Z"/>
    <path class="cls-1" d="M1021.58,269.83c7.67,8.06,7.32,18.79.49,22-2.85,1.34-5.82,1.14-8.69-.31-10.81-5.42-10.01-22.38-9.5-34.89,6.93,3.94,12.65,7.88,17.7,13.19Z"/>
    <path class="cls-1" d="M1044.55,328.37c7.67,8.06,7.32,18.79.49,22-2.85,1.34-5.82,1.14-8.69-.31-10.81-5.42-10.01-22.38-9.5-34.89,6.93,3.94,12.65,7.88,17.7,13.19Z"/>
    <path class="cls-1" d="M1022.62,209.97c.17,4.77-2.8,8.21-7.41,8.73-14.08,1.6-19.83-16.09-24.3-29.42,13.2,2.9,30.39,7.89,31.71,20.69Z"/>
    <path class="cls-1" d="M1015.75,146.41c.68,2.86-.12,5.28-1.46,6.97-1.58,1.99-4.06,2.67-6.83,2.76-11.19-.03-18.34-12.47-24.2-22.8,12.45-.25,28.7,2.08,32.49,13.07Z"/>
  </g>
  <g>
    <g>
      <path class="cls-1" d="M163.66,302.63c-.31,0-1.35.06-3.03.07-1.69.01-3.71.03-6.07.05-3.12.02-5.58-.01-7.39-.08-1.81-.06-3.39-.17-4.74-.32-1.35-.15-2.82-.39-4.42-.74-8.61-1.31-18.64-5.82-25.19-11.61-1.26-1.12-2.85-2.67-4.77-4.64-1.92-1.98-3.48-3.48-4.65-4.73-5.88-6.59-11.18-16.29-12.95-25.01-.17-.84-.29-1.59-.38-2.26-.08-.67-.15-1.55-.19-2.64-.04-1.09-.06-2.64-.06-4.65s.02-3.41.06-4.46c.04-1.05.08-1.91.13-2.58.04-.67.15-1.3.31-1.89,1.26-4.86,3.04-9.1,5.4-12.44,1.77-2.5,4.17-4.75,6.98-6.72,2.81-1.97,5.76-3.44,8.74-4.21,1.72-.44,3.9-.63,6.41-.63h2.26c3.52.25,6.96.81,10.31,1.63,2.42.59,4.92,1.49,7.48,2.7,2.55,1.21,6.14,3.12,10.75,5.72,8.88,5.2,15.12,8.36,18.73,9.49,3.6,1.13,6.37,1.7,8.3,1.7s3.44-.38,4.78-1.13c2.51-1.42,3.98-3.1,4.4-5.03.42-1.93.63-3.35.63-4.27,0-2.26-.55-4.52-1.63-6.79-.67-1.26-1.76-2.6-3.27-4.02-1.51-1.42-2.98-2.6-4.4-3.52-8.6-5.1-18.91-7.04-28.41-8.92-7.17-1.42-13.16-2.64-17.6-3.9-4.44-1.26-8.21-2.68-11.31-4.27-7.04-3.44-11.31-9.13-12.82-17.09-.34-1.84-.5-3.9-.5-6.16s.17-4.27.5-6.03c1.59-9.34,7.74-20.31,14.83-26.27,11.21-9.42,27.19-13.87,41.86-15.46,1.93-.25,4.48-.38,7.67-.38h2.51c4.36,0,7.71.13,10.06.38,9.95,1.41,20.03,5.5,26.27,13.7,2.43,3.35,4.06,7.29,4.9,11.81.25,1.34.38,2.56.38,3.65s-.13,2.18-.38,3.27c-1.51,6.03-4.95,9.68-10.31,10.94-.67.17-1.43.25-2.26.25-1.09,0-2.32-.18-3.65-.5-2.15-.52-5.29-1.67-9.3-3.39-3.33-1.43-6.14-2.51-8.36-3.27-2.22-.75-4.36-1.46-6.35-2.01-3.46-.96-6.66-1.38-9.43-1.38-4.36,0-7.71,1.17-10.06,3.39-2.3,2.18-3.52,5.11-3.52,8.8v1.01c0,1.01.06,1.78.19,2.33.13.55.4,1.24.82,2.07,1.76,3.44,4.82,6.24,9.18,8.42.5.25,1.38.63,2.64,1.13,1.26.5,2.56.96,3.9,1.38,2.77,1.01,4.96,1.82,6.6,2.45,1.63.63,3.66,1.49,6.1,2.58,14.95,7.35,30.84,16.3,40.1,30.42,5.33,8.14,9.31,20.25,9.43,30.17.08.84.13,1.59.13,2.26,0,.75-.06,1.44-.13,2.01-.11,1.05-.21,2.22-.38,3.39-1.65,11.41-6.93,22.96-15.2,30.25-9.42,8.3-23.88,11.5-36.5,14.19-1.34.32-2.54.56-3.59.72-1.05.15-2.67.3-4.73.54-1.41.16-2.69.35-3.79.45-1.01.1-1.71.11-2.02.11Z"/>
      <path class="cls-1" d="M275.46,304.66c-2.78-1.4-5.83-2.82-9.15-4.13-3.32-1.32-6.21-2.26-8.65-3.04-7.07-2.29-11.68-3.66-13.47-11.04-.17-.68-.3-1.58-.38-2.67-.08-1.09-.13-2.77-.13-5.03,0-4.02.25-7.75.75-11.19.5-3.44,1.66-9.07,3.39-16.84,2.29-10.27,3.92-18.46,5-24.54,1.07-6.08,2.01-11.61,2.51-16.21.38-3.51.51-6.01.54-7.4.03-1.39.05-2.48.05-3.15,0-1.93-.08-4.06-.26-6.4-.25-3.33-.53-5.98-.83-7.94-.3-1.95-.8-4.22-1.47-6.79-1.03-3.97-2.15-7.59-3.41-10.77-1.26-3.18-2.93-6.66-5.03-10.43-1.26-2.26-2.14-4.04-2.64-5.34-.5-1.3-.88-2.62-1.13-3.96-.08-.59-.13-1.18-.13-1.76.11-10.97,10.99-17.91,19.96-21.98,7.44-3.64,14.98-7.32,22.5-10.64,2.82-1.17,6.46-2.49,10.98-4.1,1.1-.39,1.64-.59,2.75-.99,5.8-1.95,11.34-3.81,16.57-5.43,11.44-3.39,23.73-6.18,35.65-4.94,9.29.97,18.82,9.88,20.78,19.01.59,2.52.89,5.16.89,7.92,0,5.7-1.24,11.87-3.71,18.54-3.99,10.79-11.16,20.27-17.6,29.57-6.91,9.98-13.77,19.32-21.84,28.48-4.44,4.89-8.79,8.79-13.02,11.68-4.24,2.9-9.42,5.59-15.46,7.92-2.46.97-4.31,1.74-5.58,2.37-1.27.63-2.19,1.2-2.76,1.74-.57.53-.98,1.31-1.33,2.08-.32.72-.62,1.59-.67,2.56-.05.97.08,2.05.38,3.27.59,2.45,2.2,6.46,4.39,12.7,1.62,4.62,3.17,9.32,4.78,13.75,1.61,4.43,3.68,10.14,6.13,17.37,2.26,6.65,3.83,11.79,4.78,15,.95,3.22,1.76,6.28,2.44,9.12,2.98,12.45,4.4,21.52,4.44,25.89,0,.52,0,.82,0,1.35-.47,4.67-2.6,4.02-6.57,1.02-4.18-3.16-10.33-9.01-18.55-14.94-2.08-1.5-4.32-3.03-6.74-4.56-2.42-1.53-4.29-2.58-5.59-3.3-1.3-.71-2.49-1.33-3.54-1.86ZM310.09,178.83c7.8-6.21,12.83-15.22,15.47-24.73.6-2.11.92-3.91.97-5.4.05-1.49.08-2.53.08-3.11,0-1.59-.1-2.97-.3-4.14-2.4-7.4-7.95-10.08-16.51-8.5-1.38.31-2.8.76-4.27,1.35-1.66.66-3.37,1.5-5.12,2.49-3.19,1.81-5.9,4.05-8.1,6.2-1.67,1.64-3.03,3.47-3.65,5.56-.62,2.09-.97,5.45-1.07,10.09v2.39c0,3.1.14,5.7.43,7.78.37,2.73,1.09,5.18,2.14,7.34,2.19,4.88,5.87,7.1,11.12,6.44.87-.08,1.95-.37,3.22-.87.41-.16.62-.24,1.03-.41,1.86-.82,3.38-1.65,4.56-2.47Z"/>
      <path class="cls-1" d="M387.8,395.07c-6.68-2.5-12.87-5.06-18.29-8.81-8.95-6.2-8.66-18.24-9.25-27.81.07-2.95.35-7.22.95-13.51.26-2.68.39-4.07.68-6.94.83-8.26,1.84-16.07,2.92-22.69,1.68-10.27,3.67-20.51,5.6-30.75,1.04-5.15,2.09-10.62,3.16-16.37,1.07-5.74,1.89-10.35,2.47-13.74.53-3.1,1.44-7.94,2.61-14.38,1.66-9.16,3.31-18.4,5.04-27.59,4.19-22.43,9.32-45.11,12.45-67.41.72-5.16,1-9.2,1-11.88,0-3.02-.36-5.7-.85-7.9-.53-2.36-1.21-4.57-2.21-6.37-1-1.8-2.56-3.78-4.53-5.91-2.41-2.6-4.18-4.93-5.29-6.85-1.11-1.92-1.87-3.98-2.26-6.17-.1-.72-.16-1.46-.15-2.21.18-10.55,9.09-19.2,17.7-24.42,2.45-1.5,5.18-2.9,8.18-4.12,3-1.22,7.26-2.7,12.56-3.89,4.84-1.09,8.23-1.44,10.23-1.56,1.99-.12,3.47-.12,4.48-.12,2.17,0,4.47.04,6.88.13,14.89.58,31.22,3.64,43.43,12.95,1.26.9,2.78,2.16,4.61,3.78,1.83,1.62,3.35,3.03,4.54,4.24,5.43,6.12,9.53,12.37,11.81,18.91.25.96.48,2.08.69,3.36.14.87.21,1.3.34,2.17.24,2.17.32,3.99.24,5.45-.33,3.17-1.41,6.59-3.35,10.28-1.17,2.43-2.51,4.59-4.01,6.48-1.5,1.89-3.38,3.84-5.64,5.86-2.76,2.46-5.52,4.45-8.29,6.78-2.78,2.33-6.6,5.49-11.47,9.85-1.76,1.57-3.38,3.19-4.86,4.83-1.48,1.65-2.49,2.83-3.03,3.45-3.08,4.49-4.95,10.03-5.71,16.84-.07.58-.1.88-.16,1.47-.73,9.82.75,18.72,4.81,24.89.73.97,1.5,1.87,2.29,2.67.8.81,1.98,1.82,3.55,2.98,1.57,1.17,3.87,2.64,6.92,4.28.72.36,1.43.84,2.12,1.47,6.7,3.3,11.83,5.76,15.23,7.91,3.4,2.15,6.41,4.68,9.01,7.59,4.6,4.58,8.06,10.53,10.55,17.43,3.18,8.81,4.92,19.72,4.81,29.16.07,1.5.11,2.81.09,3.94-.01,1.13-.11,2.55-.29,4.21-.18,1.66-.48,4.07-.87,7.07-.39,3-.68,5.19-.91,6.69-.23,1.52-.48,2.81-.75,3.92-.27,1.11-.64,2.42-1.09,3.91-2.33,9.08-5.26,15.99-9.12,22.17-2.47,3.94-5.6,8.24-9.42,12.81-3.83,4.57-7.37,8.28-10.62,11.39-3.89,3.72-6.95,6.35-9.24,8.13-2.29,1.79-3.63,2.82-4.04,3.14-3.93,3.03-7.43,5.48-10.52,7.4-22.85,14.79-24.81-8.87-26.9-27.16-.18-4.76-.28-12.25-.08-23.42.21-11.36.52-22.74.85-34.11.95-21.22,2.11-42.48,2.18-63.7.05-12.61-.5-21.34-1.56-26.72-1.34-6.8-3.15-10.04-5.19-10.12-1.7-.07-3.56,1.94-5.71,6.62-1.24,2.64-2.24,5.66-3.03,9.09-.79,3.44-1.5,7.89-2.18,13.5-.6,4.99-.99,9.85-1.18,14.53-.19,4.69-.38,11.64-.61,21.02-.44,25.98-.25,52.04,1.69,77.96.77,9.78,1.61,19.58,2.54,29.32.59,6.13.94,11.51,1.2,16.01.3,5.17.47,9.28.35,12.36-.26,6.97-1.95,8.44-5.89,9.91-4.36,1.63-10.45,2.05-17.92.54-1.81-.36-3.7-.8-5.68-1.32-1.98-.52-3.37-1-4.19-1.28-1.73-.58-3.2-1.15-4.44-1.63ZM443.35,127.69c3.25-1.8,6.36-5.28,8.58-10.17,2.05-4.52,2.88-8.88,2.77-12.54-.13-4.4-1.87-7.96-4.7-10.69-2.45-2.36-5.87-3.72-10.24-3.72-6.64,0-10.33,2.74-11.1,8.07-.17,1.69-.28,3.35-.32,4.99-.04,1.64-.06,2.83-.06,3.59,0,1.51.04,2.81.13,3.89,1.37,11.64,5.02,17.45,11.27,17.39.1,0,.16,0,.26,0,1.3-.01,2.44-.28,3.41-.79Z"/>
      <path class="cls-1" d="M591.24,299.61c-13.59.51-28.99,1.4-41.45-.72-20.93-3.57-12.21-49.79-10.65-61.78.21-1.34.31-2.01.52-3.36,1.25-8.07,2.5-14.98,3.7-20.56,1.2-5.58,2.71-11.78,4.48-18.35.66-2.41,1.67-6.37,2.97-11.58,1.3-5.21,2.68-10.45,3.89-15.43,1.24-5.11,2.45-10.34,3.66-15.1,1.21-4.75,2.05-7.94,2.68-10.17,1.52-5.87,1.91-8.94,2.02-11.76.11-2.81-.13-5.4-.61-7.78-.8-3.88-2.3-7.33-4.32-10.4-2.02-3.07-5.56-6.89-10.23-11.52-5.21-5.16-8.39-8.89-9.78-10.91-1.39-2.01-2.21-3.65-2.51-4.91-.17-.71-.23-1.34-.18-1.89-.23-7.1,6.73-12.39,20.12-15.64,4.08-.97,8.39-1.46,12.92-1.47.4,0,.6,0,1.01,0,1.35.08,2.41.14,3.17.18s1.42.1,1.97.18c.55.08,1.14.24,1.76.48,7.72,2.58,12.23,7.51,14.61,14.46.21.61.37,1.25.52,1.83.37,1.41.77,2.92.99,4.43.22,1.51.43,3.5.63,5.97.2,2.47.43,5.84.56,10.13.28,9.95-.27,18.22-1.22,24.68-.95,6.46-2.42,11.8-3.94,19.1-.71,3.42-1.41,7.38-2.03,11.79-.53,3.82-1.01,7.99-1.45,12.43-.98,9.87-1.74,19.26-1.6,26.63.18,9.08,2.08,15.93,5.33,20.22,3.25,4.29,7.25,5.91,11.85,5.57.36-.03.54-.04.89-.06,4.7-.95,9.18-4.52,13.55-10.99,6.95-10.27,11.31-22.47,14.14-34.56,1.02-4.18,2-9.21,2.8-14.74.81-5.53,1.22-10.18,1.33-14.01.22-7.65-.71-15.56-5.16-25.81-3.85-8.87-7.59-15.26-9.62-19.22-2.03-3.96-3.67-7.27-4.79-9.98-.64-1.55-1.2-3.02-1.67-4.41-3.98-11.86-1.33-19.83,6.03-23.88,3.91-2.76,11.31-4.56,22.07-5.69,1.91-.2,3.32-.33,4.24-.39.91-.06,1.7-.08,2.36-.07.66.01,1.39.1,2.19.26,8.9,1.65,14.77,6.38,18.09,15.79.43,1.52.79,3.39,1.08,5.65.28,2.14.43,4.2.45,6.15-.1,4.58-.54,10.9-1.46,18.05-1.33,10.33-1.99,17.98-1.95,23.58.04,5.6.41,11.04.87,16.26.11,1.25.16,1.87.23,3.07.26,4.25.42,8.95.79,14.99.36,6.03.94,15.1,1.73,27.56.55,8.64.8,15.42.78,19.92-.02,4.51-.17,9.49-.62,14.69-.19,2.21-.53,4.83-.91,7.75-.24,1.84-.36,2.75-.6,4.57-.68,4.6-1.29,8.49-1.96,11.55-.64,2.92-1.48,5.97-2.36,8.98-.88,3.02-1.65,5.42-2.34,7.27-3.96,9.56-8.24,15.53-13.93,19.99-10.85,7.53-24.01,11.21-36.98,12.88-2.4.23-4.78.33-7.11.29-2.34-.04-3.93-.05-4.76-.07-2.58-.06-4.81-.18-6.77-.15Z"/>
      <path class="cls-1" d="M721.41,312.98c-5.25-1.22-8.03-4.62-9.29-10.43-.32-1.71-.53-3.39-.65-5.03-.12-1.64-.19-4.02-.22-7.53-.04-5.99.79-13.86,2.45-23.32,2.35-13.44,5.4-26.83,8.27-40.16,2.03-9.43,4.14-18.96,5.59-28.51.89-5.86,1.42-11.07,1.91-20.26.2-3.67.35-7.99.41-12.95.05-3.79.07-7.95.03-12.41-.09-10.21-.6-19.66-1.05-27.02-.54-8.84-2.16-13.64-5.21-14-1.44-.17-3.45,1.32-5.94,4.26-2.49,2.94-6.18,8.21-10.76,14.61-.94,1.33-1.41,1.98-2.34,3.24-1.27,1.61-2.13,2.62-2.62,3.14-2.93,2.84-5.53,3.47-7.92,2.44-1.09-.47-2.12-1.3-3.12-2.48-6.25-8.53-7.87-20.44-8.81-30.66-.13-1.25-.19-1.88-.32-3.12-.85-9.72-.52-17.51,1.09-23.66.43-1.96.95-3.61,1.54-4.95.59-1.34,1.35-2.81,2.29-4.39,1.8-3.04,4.23-5.55,7.05-7.63,3.04-2.24,7.02-4.27,11.88-5.93,4.86-1.66,11.79-3.42,20.56-4.91,3-.51,7.11-1.04,12.22-1.56,5.11-.53,9.49-.9,13.14-1.16,3.66-.26,6.36-.38,8.14-.42,1.77-.04,3.19.06,4.29.21,11.56,1.82,22.9,3.96,33.48,8.63,11.54,5.09,20.93,15.73,22.47,28.85.55,2.81.88,5.54.98,8.18.1,2.64.16,4.53.18,5.58.06,3,.01,6.04-.13,9.09-.75,10.1-2.09,21.23-7.27,30.17-1.82,3.04-4.17,4.48-6.98,4.28-2.05-.14-4.06-.88-6.02-2.26-1.96-1.38-5.09-4.39-9.2-9.24-4.42-5.21-7.96-9.48-10.78-12.6-2.82-3.12-5.47-5.89-7.98-8.27-1.61-1.39-2.92-2.26-3.93-2.6-1.02-.34-1.74-.52-2.18-.54-.79-.04-1.5.2-2.12.72-2.41,2.11-4.07,6.74-5.07,13.81-1.43,10.13-2.35,20.39-3.25,30.55-.98,11.1-2,22.39-2.62,33.45-.17,3.04-.24,5.76-.25,8.01-.02,15.77,2.61,31.13,6.37,46.53,1.04,3.31,2.26,6.54,3.67,9.67,1.41,3.13,3.46,7.26,6.38,12.42,1.57,2.59,3.04,5.04,4.37,7.33,1.33,2.29,2.21,3.94,2.6,4.95,3.13,5.87,4.88,11.28,4.77,15.83-.01.6-.02.9-.04,1.48-1.56,10.74-12.21,14.64-21.57,16.46-4.41,1.09-8.74,2.37-13.7,3.35-4.96.98-9.63,1.48-13.98,1.57-1.71.04-3.64-.02-5.8-.19-2.08-.16-3.76-.38-5.04-.64Z"/>
      <path class="cls-1" d="M934.5,353.92c-4.65-1.29-8.71-2.51-12.07-3.54-3.36-1.03-6.55-2.1-9.58-3.21-16.49-5.53-33.39-16.18-39.71-33.33-1.82-4.55-3.46-10.08-5.13-16.85-.45-1.83-.69-2.77-1.2-4.68-2.06-9.04-3.72-17.65-4.02-24.64-.24-5.48.37-11.86,1.39-18.8,1.01-6.94,2.57-13.47,4.39-19.25,2.04-6.46,5.69-13.76,11.28-20.96,8.84-11.39,20.75-20.05,32.53-27.19,10-6.07,25.6-14.95,28.83-28.01.17-1.78,0-3.53-.51-5.25-.53-1.81-1.43-3.63-2.7-5.38-1.5-2.07-3.4-3.7-5.58-4.81-2.26-1.16-4.65-1.91-7.13-2.24-5.25-.71-10.96.47-17.52,4.33-2.21,1.36-4.3,2.94-6.27,4.77-1.97,1.83-4.89,5.07-9.05,9.6-4.25,4.64-7.94,8.18-10.39,10.38-2.45,2.21-4.85,3.82-7.13,4.83-3.42,1.58-6.83,2.4-10.17,2.44-3.94.05-7.76-.92-11.43-3.11-5.91-4.14-9.91-11.22-12.13-21.8-.3-1.45-.63-3.7-1.01-6.78-.38-3.08-.72-6.23-1.04-9.44-.32-3.2-.52-5.61-.6-7.24-.36-10.23.16-23.66,6.78-31.04,7.84-8.73,24.77-2.82,34.85-.13,14.47,3.86,29.18,8.41,43.92,11.88,5.11,1.2,8.84,1.91,11.31,2.45,2.46.54,5.24,1.26,8.3,2.07,10.41,3.05,17.26,6.21,21.37,10.99,4.21,4.9,7.08,10.82,8.96,17.01.09.31.14.46.23.76,1,3.47,1.39,6.68,1.24,9.5-.16,3.07-.81,6.39-2.35,9.85-1.54,3.46-4.16,7.9-9.85,13.94-6.39,6.78-13.78,11.45-18.42,17.24-4.64,5.79-7.1,14.03-8.28,23.6-1.95,14.72-.59,31.24,5.63,44.82.18.36.27.55.45.91,4.32,7.18,9.22,11.96,14.44,14.18.66.08.98.12,1.63.21,2.85.36,5.28-.72,7.19-3.02,1.36-1.65,2.54-3.84,3.31-6.55.76-2.71,1.52-6.97,2.07-12.8.73-8.33,1.3-14.99,2.04-19.87.74-4.89,1.88-9.05,3.34-12.55,3.03-7.95,7.34-10.24,11.05-9.97.64.05,1.27.17,1.88.38,12.23,6.04,19.59,22.68,26.02,33.7,2.72,4.87,6.34,11.48,10.89,19.86,4.55,8.39,8.34,15.47,11.3,21.16,3.28,6.3,6.91,13.47,10.69,21.27,3.78,7.81,6.91,14.63,9.4,20.52,4.62,11.86,19.19,38.37.16,45.7-2.21,1.02-5.09,2.04-9.07,2.84-3.98.81-8.13,1.16-12.24,1.01-3.05-.11-7.76-.41-14.76-1.2-7.01-.79-13.54-1.77-19.03-2.69-3.48-.59-9.34-1.69-18.2-3.6-9.16-1.98-18.31-4.13-27.4-6.39-9.49-2.36-17.29-4.35-22.87-5.89Z"/>
      <path class="cls-1" d="M149.42,611.92c-8.04-.75-15.18-2.75-21.24-6.03-6.85-3.71-13.2-8.88-18.98-15.33-11.75-12.23-17.92-29.1-19.36-45.75-.08-1.84-.13-4.19-.13-7.04,0-1.86,0-2.6,0-4.83.02-6.02.26-14.42.66-20.93,3.32-53.17,5.63-109.97,22.21-161,4.23-10.46,8.4-21.39,17.43-28.84,14.83-5.78,27.01-4.5,42.64-3.13,4.4.31,8.66.57,12.71.71,9.23.33,18.99.43,28.18,2.09,19.68,3.74,18.18,17.64,17.41,34.71-.52,4.2-1.21,8.48-1.97,12.69-1.72,9.51-3.96,19.47-7.05,28.44-2.91,8.44-6.12,18.52-12.5,25.46-.97.92-1.78,1.47-2.41,1.65-.63.18-1.6.18-2.88.02-1.49-.19-2.75-.8-3.8-1.86-1.05-1.05-2.36-3.34-4-6.84-1.63-3.5-3.99-8.88-7.29-16-5.29-11.23-10.18-18.08-14.06-21.09-1.13-.82-2.15-1.39-3.06-1.7-.91-.31-2.36-.53-4.34-.65-2.75-.17-5.19.19-7.3,1.08-2.11.88-4.41,2.52-6.88,4.96-19.26,21.17-22.3,52.58-23.93,79.57-.17,2.88-.25,5.9-.32,8.98.05,12.23.09,24.93,4.19,36.39,3.32,9.31,8.27,13.05,15.26,12.96,2.07-.03,4.12-.34,6.16-.95,2.04-.61,4.99-1.7,8.9-3.33,8.7-4.15,15.85-6.46,21.06-6.49,5.21-.02,9.41,2.25,12.63,6.18,6.55,8.34,10.54,19.92,13.75,29.94.67,2.43,1.11,4.67,1.32,6.72.21,2.05.31,4.63.31,7.73,0,4.44-.31,8.09-.94,10.93-.63,2.85-1.86,5.89-3.46,9.05-1.28,2.53-2.49,4.73-3.71,6.41-1.22,1.68-2.7,3.44-4.46,5.28-11.75,10-23.39,17.58-39.09,19.61-1.76.17-3.48.25-5.15.25h-6.54Z"/>
      <path class="cls-1" d="M249.46,613.55c-2.01-.34-4.17-.84-6.47-1.51-2.3-.67-4.25-1.38-5.85-2.14-6.96-3.69-11.15-9.38-12.57-17.09-.08-.92-.13-2.09-.13-3.52v-2.14c.08-2.26.38-4.39.75-6.29.46-2.37,1.09-5.24,2.01-8.42.92-3.18,2.57-8.39,4.9-15.59,3.07-9.46,5.87-18.96,8.53-28.56,3.31-11.94,6.18-23.98,9.04-36.03.71-3.09,1.08-4.67,1.83-7.89,5.07-22.83,9.83-45.69,13.71-68.75,1.14-7.23,1.94-13.32,2.41-18.37.48-5.04.9-10.88,1.13-17.2.23-10.83,1.02-22.51.43-32.5-.05-.84-.17-1.77-.15-2.54.02-.78.17-1.29.33-1.57.26-.44.77-.66,1.59-.46.82.2,1.73.64,2.74,1.28,1.84,1.19,4.03,2.96,6.42,5.46,2.45,2.56,4.39,4.81,6.78,7.3.79.83,1.6,1.67,2.39,2.51,8.93,9.24,22.02,21.02,23.08,34.71,0,.17,0,.26,0,.43.03,2.03-.38,3.34-1.21,4.3-.84.96-2.67,2.2-5.45,4.84-3.81,3.62-7.29,9.1-10.06,14.5-2.77,5.4-5.44,12.05-7.72,19.45-1.2,3.89-2.16,7.82-3.01,11.41-3.46,14.57-5.67,34.94,5.83,46.89,1.61,1.71,3.05,2.85,4.29,3.5,1.24.65,2.94,1.18,5.1,1.59,2.08.4,3.9.51,5.45.35,1.55-.16,3.24-.65,5.07-1.47,8.97-4.66,14.95-13.52,18.7-22.66.73-2.02,1.45-4.45,2.14-7.29.69-2.83,1.15-5.33,1.36-7.49.14-1.44.2-2.89.16-4.33-.04-1.44-.13-3.52-.28-6.19-.15-2.67-.43-6.48-.92-11.28-.8-7.37-1.53-12.55-1.97-15.85-.44-3.3-.67-5.85-.82-7.56-.13-1.53-.27-2.89-.23-3.95.14-3.48,1.41-6.86,4.05-7.95,4.56-2.12,9.51-1.35,15.62,1.57,6.11,2.92,10.61,5.05,13.59,6.77,5.41,3.13,10.51,6.7,14.88,10.86,5.36,5.11,8.41,10.62,9.23,17.09.08.67.14,1.37.16,2.11.1,2.61-.65,4.28-1.78,5.96-1.14,1.68-3.03,3.92-5.91,7.1-4.84,5.36-9.24,11.7-12.61,18.12-4.32,8.23-7.72,17.49-10.58,26.21-1.14,3.46-2.17,6.83-2.93,9.95-.76,3.12-1.23,5.14-1.46,6.21-.68,3.13-1.07,5.5-1.25,7.23-.7,6.77.11,11.1,1.96,15.92,1.84,4.82,4.69,9.78,8.55,14.9,8.63,11.73,13.32,19.69,14.08,23.88.25,1.26.38,2.51.38,3.77,0,3.1-.82,6.12-2.39,9.05-2.19,4.08-5.61,7.38-10.31,9.8-2.01.92-5.11,2.03-9.3,3.33-4.19,1.3-8.74,2.48-13.57,3.58-3.26.74-5.57,1.19-6.91,1.32-1.34.13-2.39.19-3.14.19-1.43,0-2.93-.13-4.52-.38-8.97-.84-15-4.61-18.1-11.31-1.84-3.85-2.77-8.13-2.77-12.82,0-.75.04-1.51.13-2.26.33-3.77,1.05-7.86,2.14-12.25,1.09-4.4,2.97-10.87,5.66-19.42,1.09-3.43,1.89-6.05,2.39-7.86.5-1.8.84-3.18,1.01-4.15.17-.96.25-1.91.25-2.83,0-3.69-.96-6.06-2.99-8.7-2.03-2.64-5.04-4.68-9.18-5.58-.58-.14-1.25-.24-2.01-.28-3.21-.19-7.28.47-12.1,2.03-5.71,1.84-10.36,4.22-13.29,6.71-3.64,3.09-5.29,6.66-5.29,10.85,0,1.09.13,2.22.38,3.39.67,3.27,4.4,10.06,11.19,20.36,3.1,4.69,5.45,8.47,7.04,11.31,1.59,2.85,2.74,5.37,3.39,7.54.85,2.82,1.26,5.49,1.26,7.92,0,5.78-2.31,10.35-6.91,13.7-3.35,2.18-7.98,3.96-13.89,5.34s-11.84,2.07-17.79,2.07c-1.09,0-2.18-.02-3.27-.06-1.09-.04-1.89-.11-2.39-.19Z"/>
      <path class="cls-1" d="M413.72,612.6c-9.5-.76-21.56-3.44-26.5-12.62-1.09-2.01-1.63-4.23-1.63-6.66,0-1.84.35-3.8.88-5.78.72-2.69,1.84-5.74,3.52-8.92,1.68-3.18,4.27-7.42,7.79-12.7,6.33-9.76,12.54-19.74,17.48-30.11,6.68-14.01,14.55-28.01,21.89-41.97,1.93-3.48,3.96-7.17,6.09-10.99,1.61-2.87,2.96-5.23,3.95-7.01,2.42-4.24,5.62-9.6,9.7-16.28,4.08-6.68,8.09-13.18,11.95-19.42,3.86-6.24,6.6-10.65,8.11-13.02,10.13-14.97,17.97-34.13,30.68-47.13,3.19-3.17,6.38-5.74,9.82-8.18,4.23-2.99,8.85-5.83,13.87-8.63,6.52-3.63,14.18-7.94,20.76-6.7,4.4.83.83,12.42.62,20.83-.28,11.09-.69,22.42-.3,33.33.41,11.52.89,23.85,4.8,35.04,2.39,6.86,6.64,12.14,9.39,21.01,1.12,4.1,2.02,8.24,2.91,11.9.89,3.67,1.96,7.87,3.09,12.83,1.73,7.33,2.49,14.16,2.91,19.2.41,5.03.5,9.36.39,12.67-.11,3.32-.42,6.71-.95,10.04-.76,4.79-1.87,9.57-3.21,14.18-4.03,13.81-10.27,27.81-18.88,38.61-8.57,10.76-18.63,19.24-33.09,22.43-2.27.35-4.69.56-7.25.66-2.48.1-5.15.1-8.02,0-5.74-.21-10.26-.99-13.53-2.38-6.02-2.36-9.41-7.27-9.59-16.15-.19-2.64.25-6.58,1.43-12.08,1.17-5.51,3.2-11.93,6.18-19.45,4.11-10.36,8.89-20.46,13.59-30.57,3.94-8.24,6.77-14.63,8.43-19.03,1.66-4.39,2.85-8.61,3.44-12.38,1.49-9.48-2.94-11.08-9.45-10.46-2.82.48-6.2,2.04-10.21,4.7-1.76,1.17-3.63,2.53-5.63,4.09-9.54,7.98-18.55,16.82-25.93,26.87-4.82,6.83-8.28,12.95-10.46,18.43-2.17,5.48-3.4,9.82-3.69,13.02-.14,1.55-.12,2.95.06,4.2.24,1.64.81,3.03,1.68,4.19.87,1.16,2.54,2.74,4.91,4.92,3.47,3.47,5.55,6.73,6.47,9.31.92,2.59,1.12,5.34.69,8.08-.07.43-.1.64-.17,1.07-.64,3.47-2.4,7.13-5.09,10.64-3.23,4.21-7.3,7.74-12.16,10.58-4.87,2.84-9.75,4.59-14.87,5.65-1.34.3-2.53.5-3.58.61-1.05.1-2.69.21-4.82.2-1.47,0-3.02-.12-4.56-.24-1.54-.13-2.84-.26-3.92-.38ZM505.22,454.95c2.32-2,4.83-4.43,7.36-7.3,2.53-2.87,4.56-5.49,6.13-7.87.14-.2.31-.46.49-.79.47-.72.99-1.53,1.55-2.42.56-.89,1.03-1.71,1.42-2.49,1.82-3.36,3.14-6.58,4.02-9.7.91-3.24,1.63-6.95,2.06-11.07.63-6.05.05-9.5-1.76-9.89-.71.06-1.68.56-2.93,1.52-1.14.88-2.4,2.1-3.79,3.64-3.63,4.23-7.88,10.04-12.74,17.27-4.87,7.23-9.48,14.49-13.68,21.73-1.12,1.88-1.91,3.32-2.34,4.31-.44,1-.99,2.48-1.66,4.42-.38,1.1-.56,1.64-.94,2.73-.25.73-.4,1.3-.44,1.7-.04.41.02.8.18,1.17.33.74.77,1.22,1.32,1.44.55.22,1.48.12,2.71-.17,1.67-.4,3.86-1.37,6.37-3.03,2.02-1.34,4.26-3.12,6.67-5.19Z"/>
      <path class="cls-1" d="M589.08,618.07c-1.85-.35-3.31-.67-4.38-.95-1.08-.28-2.15-.66-3.21-1.17-3.25-1.52-5.85-3.71-7.29-7.46-5.42-14.63.45-31.92,3.82-46.3.78-3.09,1.76-6.73,2.96-10.95,11.12-39.36,25.47-77.95,34.6-117.88,1.32-5.6,2.25-10.61,2.56-14.54.31-3.93.07-5.29.07-6.59-.03-.18-.04-.37-.01-.56-.05-1.24-.07-2.6.07-4.16.13-1.55.23-2.95.3-4.16.48-5.22.72-9.37.7-11.85-.02-2.48-.11-4.6-.3-6.28-.12-1.09-.27-2.07-.43-2.92-1.54-8.48-3.94-16.11-6.86-22.09-.68-1.55-1.58-3.21-2.71-4.98-1.13-1.77-2.76-4.15-4.86-6.99-1.51-2.05-2.62-3.64-3.27-4.75-.65-1.11-1.16-2.09-1.54-2.97-.87-2.55-1.34-5.41-1.44-8.59-.02-.59-.03-.88-.04-1.47.07-6.96,1.17-8.94,3.8-9.38,3.06-.51,9.73,1.3,21.72,1.57.89.04,1.89.05,3.02.02,2.82-.06,6.25-.3,10.28-.69,5.38-.51,10.19-1.11,14.28-1.61,13.12-3.82,17.76,1.02,23.78,11.49,1.83,4.64,3.39,9.59,4.78,14.65,1.38,5.07,2.92,11.22,4.84,17.84,4.41,12.53,8.9,24.41,18.22,34.19,2.45,2.19,4.86,3.67,7.27,4.42,2.41.75,4.38,1.14,5.94,1.14,1.1,0,2.19-.16,3.27-.5,2.51-.73,4.24-3.05,5.31-6.64.96-3.24,1.36-7.32,1.11-12.46-.32-6.54-1.56-13.4-3.56-21.17-.9-3.84-1.92-7.65-3.11-11.35-1.19-3.69-2.82-8.33-4.78-14.29-1.96-5.96-3.12-11.14-3.65-15.01-.53-3.88-1.79-3.42-2.2-3.77-.14-.12-.33-.21-.45-.27-1.16-.63.72,1.84,6.8,4.09,6.35,2.35,13.93,4.06,23.47,3.7,1.3-.05,2.65-.14,4.02-.28,11.73-1.3,22.43-5.25,33.53-8.87.33-.07.68-.12.99-.05.31.07.51.26.62.53.35.87-.52,3.17-2.75,8.38-2.23,5.21-5.25,11.6-8.47,18.34-4.03,8.43-6.42,14.02-8.04,18.05-1.62,4.03-2.98,8.01-4.14,11.88-.7,2.36-1.18,4.24-1.45,5.68-.27,1.44-.4,2.97-.41,4.57,0,1.6.06,3.9.21,6.89.12,2.38.22,4.23.28,5.57.07,1.34.17,2.49.3,3.43.13.95.31,2.03.53,3.25.87,4.76,1.84,9.83,1.29,18.01-.85,12.68-2.94,25.47-5.18,37.85-2.67,14.74-5.99,29.73-9.44,44.5-2.15,9.2-4.54,18.39-7.18,27.47-.58,1.93-.86,2.9-1.43,4.82-5.49,17.67-10.67,38.54-23.49,52.69-2.96,3.03-5.93,5.1-8.97,6.39-3.05,1.29-6.7,2.08-10.99,2.42-1.11,0-1.67-.01-2.78-.02-3.03-.02-5.75-.45-7.91-1.42-2.7-1.22-5.28-3.68-7.39-7.35-2.8-4.86-4.73-12.35-5.46-23.28-.62-7.53-.54-15.81.22-24.66,1.05-12.12,2.83-24.22,4.67-36.27.67-4.61,1.45-9.96,2.28-15.94.84-5.98,1.55-11.11,2.16-15.45,1.46-11.89,3.08-24,3.63-35.76.43-9.11,1.34-20.08-2.22-29.02-1.05-1.88-2.11-3.65-3.17-5.33-1.06-1.68-1.83-2.91-2.31-3.67-3.28-5-6.31-8.37-9.04-9.64-.86-.31-1.59-.46-2.18-.46-.59,0-.98,0-1.16.02-.81.05-1.52.2-2.12.46-2.47,1.24-4.33,3.92-5.58,7.74-1.25,3.82-1.59,7.57-.95,10.99,2.33,12.51,1.32,26.31,1.21,39.15.05,3.69.15,7.59.33,11.69.17,4.11.44,9.36.73,15.93.56,9.85.57,18.34.29,24.91-.28,6.57-.94,13.43-1.92,20.46-2.4,15.1-5.11,30.07-8.97,44.87-.3,1.16-.46,1.74-.75,2.88-4.83,15.27-9.27,35.13-23.07,45.25-2.92,1.63-5.93,2.67-9.12,3.33-1.09.28-2.35.46-3.77.55-1.42.09-3.6.22-6.41.27-1.98.03-3.77,0-5.28,0s-2.39-.04-2.64-.13Z"/>
      <path class="cls-1" d="M756.24,618.81c-1.84-.5-3.3-.93-4.38-1.28-1.08-.36-2.14-.81-3.19-1.39-3.23-1.73-5.74-4.14-7.27-7.86-6-14.78.33-32.66,3.85-47.22.85-3.22,1.91-7.01,3.21-11.41,12.03-40.72,27.3-80.46,40.07-120.98,1.82-5.52,3.3-10.45,4.24-14.33.94-3.88,1.15-5.75,1.42-7.37,0-.24.03-.47.1-.69.19-1.53.42-3.12.68-4.76.27-1.64.48-3.02.65-4.18.88-4.96,1.44-8.3,1.66-10.38.22-2.09.37-3.85.39-5.29.02-.93,0-1.77-.05-2.52-.37-7.36-1.22-14.29-3.22-19.83-.43-1.43-1.08-2.99-1.94-4.65-.86-1.66-2.04-4.02-3.55-7.13-1.1-2.25-1.88-4.08-2.28-5.35-.4-1.27-.68-2.41-.83-3.42-.17-2.89.26-6.11,1.36-9.76.2-.67.31-1.01.52-1.7,2.81-8.01,5.49-9.87,9.09-10.25,4.26-.45,10.61,1.16,20.46,5.95.72.37,1.55.77,2.47,1.22,2.3,1.12,5.07,2.46,8.24,4.22,4.23,2.35,7.9,4.73,10.93,6.99,11.63,8.03,12.36,18.14,12.89,31.4.05,6.35-.2,12.75-.74,19.17-.53,6.41-1.41,14.1-2.48,22.85-2.12,18.83-3.84,37.76-1.99,56.69.63,5.2,1.5,9.52,2.5,12.91,1,3.4,1.89,5.88,2.64,7.45.53,1.11,1.08,2,1.67,2.65,1.36,1.59,2.59.49,4.38-3.2,1.57-3.21,3.56-8.38,6.05-15.35,3.42-9.54,6.45-19.73,8.36-29.74,1.11-5.28,1.93-10.42,2.42-15.42.49-5.01.86-11.27,1.04-18.99.18-7.72.4-13.84.73-18.13.33-4.29.34-6.99.3-8.6-.01-.44-.06-.92-.06-1.34-.05-4.04.85-2.39,4.89,1.48,4.18,4.01,9.45,8.14,16.53,12.59.97.61,1.97,1.23,3,1.86,9.38,5.37,20.73,11.61,23.94,22.79.11.75.2,1.72.19,2.92-.01,1.21-.11,2.39-.28,3.53-.54,3.66-2.33,8.06-4.29,11.09-1.96,3.03-5.06,7.09-9.33,12.31-5.36,6.53-9.87,12.16-13.14,16.38-3.27,4.21-6.61,8.81-9.89,13.62-1.99,2.92-3.54,5.33-4.65,7.26-1.11,1.93-2.17,4.06-3.17,6.38-.99,2.33-2.38,5.74-3.87,10.1-1.18,3.47-1.94,6.1-2.44,7.96-.5,1.86-.83,3.44-1.04,4.75-.21,1.31-.39,2.8-.51,4.45-.46,6.41.61,11.34,1.35,16.87.74,5.53,1.69,12.92,2.82,21.84,1.22,9.69,2.01,17.04,2.45,21.43.44,4.39.69,8.47.71,12.24-.01.85-.02,1.27-.03,2.11-.17,12.51-2.97,20.02-8.66,23.43-2.18,1.31-4.63,2.14-7.34,2.47-2.71.33-6.15.27-10.29-.26-1.09-.2-1.64-.3-2.72-.51-2.97-.57-5.67-1.38-7.95-2.52-2.86-1.43-5.7-3.71-8.26-6.95-3.37-4.26-6.19-10.45-8.06-19.39-1.39-6.2-2.1-12.98-2.19-20.13-.12-9.8.72-19.57,1.49-29.33.32-3.79.71-8.22,1.18-13.26.47-5.04.91-9.44,1.31-13.16,1-10.82,2.18-21.72,3.05-32.44.83-10.25,1.76-20.9.9-31.29-.45-3.39-.84-6.58-1.2-9.61-.36-3.02-.59-5.17-.72-6.47-.99-8.81-1.95-15.01-3.29-18.76-.44-1.09-.84-1.9-1.19-2.43-.35-.53-.58-.87-.69-1.02-.49-.67-.95-1.14-1.36-1.42-1.71-.95-3.32.02-4.55,2.8-1.22,2.78-1.66,6.5-1.56,11.23.32,14.25-2.15,28.95-3.39,43.26-.27,4.05-.49,8.36-.65,12.91-.16,4.55-.3,10.39-.4,17.5-.07,10.76-.24,19.41-.52,25.81-.28,6.41-.77,12.74-1.46,18.96-1.42,12.63-3.26,25.24-6.05,37.64-.21.94-.32,1.4-.53,2.33-3.92,12.85-7.77,29.25-20.66,36.26-2.99,1.24-6.11,1.95-9.4,2.3-1.13.18-2.42.24-3.87.19-1.45-.05-3.68-.12-6.52-.32-2.01-.14-3.82-.32-5.34-.43-1.53-.11-2.41-.22-2.66-.33Z"/>
      <path class="cls-1" d="M922.65,631.15c-10.47-3.31-23.93-6.06-29.33-16.98-1.17-2.39-1.78-5.13-1.84-8.2-.05-2.32.26-4.82.73-7.36.65-3.47,1.66-7.38,3.21-11.46,1.54-4.08,3.95-9.56,7.22-16.29,5.61-11.62,11.12-23.55,16.65-34.97,6.35-13.11,14.39-25.62,22.75-37.81,2.14-2.89,4.4-5.9,6.75-8.94,1.75-2.26,3.19-4.07,4.26-5.44,2.56-3.21,5.81-7.1,9.6-11.53,3.79-4.43,7.22-8.43,10.24-12.02,3.02-3.59,4.88-5.9,5.88-7.1,6.93-7.69,12.66-17.86,21.63-23.09,2.09-.33,4.26.13,6.65,1.24,2.93,1.36,6.2,3.69,9.51,6.97,4.28,4.24,8.99,10.34,10.61,19.75,1.08,6.3,2.01,11.32,1.48,17.52-.53,6.19-2.83,14.3-5.55,23.67-2.69,9.28-5.58,19.46-3.29,29.33,2.33,10.02,8.76,19.12,14.16,27.7,3.24,4.92,6.55,9.62,9.69,13.76,3.15,4.14,6.93,8.82,11.35,14.06,6.61,7.77,11.92,14.16,15.64,18.72,3.71,4.56,6.57,8.25,8.55,11.02,1.98,2.77,3.75,5.49,5.24,8.13,2.12,3.76,3.77,7.57,5.13,10.95,3.21,8,4.87,20.2,1.57,28.65-4.34,11.16-17.61,12.97-28.01,11.25-2.75-.5-5.78-1.24-9.1-2.2-3.21-.93-6.75-2.1-10.64-3.52-7.78-2.85-14.27-5.95-19.3-9.16-9.04-5.51-16.13-13.64-20.4-23.31-1.55-3.13-2.96-7.41-4.37-13.07-1.41-5.65-2.34-11.85-2.85-18.62-.51-6.77-.76-15.53-.62-25.88.14-6.6.09-11.75-.16-15.49-.25-3.74-.81-7.6-1.55-11.39-1.88-9.54-4.82-14.77-9.89-18.51-2.15-1.42-4.51-2.15-7.18-2.18-1.17-.01-2.39.1-3.68.34-5.61,1.47-11.3,4.85-16.19,11.54-3.13,4.72-5.02,9.88-5.78,15.25-.76,5.37-.8,10.1-.2,13.96.29,1.87.71,3.65,1.26,5.34.73,2.21,1.73,4.3,3.01,6.27,1.28,1.97,3.54,4.94,6.92,9.07,5.06,6.39,8.83,11.63,10.99,15.34,2.16,3.7,3.59,7.15,4.21,10.22.1.48.15.72.24,1.2.66,3.83-.03,7.25-2.22,10.09-2.63,3.4-6.93,5.65-12.8,6.9-5.87,1.25-12.3,1.33-18.93.76-1.74-.12-3.28-.29-4.63-.51-1.35-.22-3.46-.62-6.14-1.23-1.87-.43-3.79-.95-5.69-1.45-1.9-.51-3.49-.92-4.8-1.27ZM985.1,502.01c1.65-.18,3.53-.6,5.5-1.34,1.97-.74,3.64-1.57,5-2.49.12-.07.27-.18.44-.32.41-.28.87-.6,1.37-.96.5-.35.93-.72,1.31-1.09,1.72-1.54,3.13-3.27,4.24-5.24,1.15-2.05,2.28-4.67,3.17-7.83,1.34-4.73,1.24-8.27.08-10.3-.48-.61-1.16-1.06-2.05-1.34-.82-.26-1.73-.31-2.74-.15-2.67.6-5.85,2.23-9.7,5.02-3.85,2.8-7.69,6.17-11.39,10.09-.98,1-1.69,1.83-2.14,2.49-.44.66-1.06,1.71-1.83,3.15-.44.81-.65,1.22-1.08,2.03-.29.54-.49,1-.59,1.37-.11.37-.16.8-.16,1.29.01.97.14,1.75.39,2.36.25.6.79,1.18,1.48,1.75,1,.81,2.37,1.41,4.05,1.61,1.37.17,2.96.08,4.66-.1Z"/>
    </g>
    <circle class="cls-1" cx="570.08" cy="22.99" r="15.92"/>
    <circle class="cls-1" cx="624.47" cy="22.99" r="15.92"/>
    <circle class="cls-1" cx="1052.67" cy="414.71" r="15.92"/>
    <circle class="cls-1" cx="989.24" cy="399.41" r="15.92"/>
  </g>
</svg>